# xmcd CD database file
#
# Track frame offsets:
#	150
#	24450
#	52845
#	79010
#
# Disc length: 1376 seconds
#
# Revision: 0
# Processed by: cddbd v1.5PL3 Copyright (c) Steve Scherf et al.
# Submitted via: CDex 1.51
#
DISCID=21055e04
DTITLE=S.E.S - 海のオーロラ
DYEAR=2000
DGENRE=JPop
TTITLE0=海のオーロラ (Single Version)
TTITLE1=海のオーロラ (Northern Lights Mix)
TTITLE2=海のオーロラ (Blizzard Mix)
TTITLE3=海のオーロラ (Instrumental)
EXTD=YEAR: 2000
EXTT0=
EXTT1=
EXTT2=
EXTT3=
PLAYORDER=
